# xmcd CD database file
#
# Track frame offsets:
#	150
#	6706
#	12175
#	18403
#	24533
#	30311
#	35882
#	41570
#	47127
#	50759
#	56316
#	62470
#	68529
#	74583
#	80636
#	86690
#	92696
#	97813
#	101604
#	107014
#	112426
#	117079
#	121480
#	126077
#	130483
#	137664
#	144078
#	150967
#	157794
#	164391
#	171020
#	177600
#
# Disc length: 2453 seconds
#
# Revision: 0
# Processed by: cddbd v1.5.1PL0 Copyright (c) Steve Scherf et al.
# Submitted via: CDex 1.51
#
DISCID=b0099320
DTITLE=Standards à la carte - Volume 2
DYEAR=1997
DGENRE=Jazz
TTITLE0=Satin Doll 1
TTITLE1=Satin Doll 2
TTITLE2=Satin Doll 3
TTITLE3=Satin Doll 4
TTITLE4=Satin Doll 5
TTITLE5=Satin Doll 6
TTITLE6=Satin Doll 7
TTITLE7=Satin Doll 8
TTITLE8=Bluesette 1
TTITLE9=Bluesette 2
TTITLE10=Bluesette 3
TTITLE11=Bluesette 4
TTITLE12=Bluesette 5
TTITLE13=Bluesette 6
TTITLE14=Bluesette 7
TTITLE15=Bluesette 8
TTITLE16=Jordu 1
TTITLE17=Jordu 2
TTITLE18=Jordu 3
TTITLE19=Jordu 4
TTITLE20=Jordu 5
TTITLE21=Jordu 6
TTITLE22=Jordu 7
TTITLE23=Jordu 8
TTITLE24=The Girl from Ipanema 1
TTITLE25=The Girl from Ipanema 2
TTITLE26=The Girl from Ipanema 3
TTITLE27=The Girl from Ipanema 4
TTITLE28=The Girl from Ipanema 5
TTITLE29=The Girl from Ipanema 6
TTITLE30=The Girl from Ipanema 7
TTITLE31=The Girl from Ipanema 8
EXTD=YEAR: 1997
EXTT0=
EXTT1=
EXTT2=
EXTT3=
EXTT4=
EXTT5=
EXTT6=
EXTT7=
EXTT8=
EXTT9=
EXTT10=
EXTT11=
EXTT12=
EXTT13=
EXTT14=
EXTT15=
EXTT16=
EXTT17=
EXTT18=
EXTT19=
EXTT20=
EXTT21=
EXTT22=
EXTT23=
EXTT24=
EXTT25=
EXTT26=
EXTT27=
EXTT28=
EXTT29=
EXTT30=
EXTT31=
PLAYORDER=
